<?xml version="1.0" encoding="UTF-8" standalone="no"?>
<svg width="74px" height="133px" viewBox="0 0 74 133" version="1.1" xmlns="http://www.w3.org/2000/svg" xmlns:xlink="http://www.w3.org/1999/xlink" xmlns:sketch="http://www.bohemiancoding.com/sketch/ns">
    <!-- Generator: Sketch 3.4.4 (17249) - http://www.bohemiancoding.com/sketch -->
    <title>compass</title>
    <desc>Created with Sketch.</desc>
    <defs></defs>
    <g id="Page-1" stroke="none" stroke-width="1" fill="none" fill-rule="evenodd" sketch:type="MSPage">
        <g id="Artboard-1" sketch:type="MSArtboardGroup" transform="translate(-53.000000, -306.000000)" stroke="#000000">
            <g id="compass" sketch:type="MSLayerGroup" transform="translate(54.000000, 306.000000)">
                <path d="M36.9,0.7 L22.7,59.7 L1.6,68.3 L23.2,78.3 L34.9,133 L47,76.4 L69.2,67.3 L47,59.7 L36.9,0.7 Z" id="Shape" sketch:type="MSShapeGroup"></path>
                <path d="M34.1,129 L36.4,2.8 L35.4,69.4" id="Shape" sketch:type="MSShapeGroup"></path>
                <path d="M1.6,68.3 L69.2,67.3" id="Shape" sketch:type="MSShapeGroup"></path>
                <path d="M47,59.7 L23.2,78.3" id="Shape" sketch:type="MSShapeGroup"></path>
                <path d="M22.7,59.7 L47,76.4" id="Shape" sketch:type="MSShapeGroup"></path>
                <path d="M45.6,51.7 L71.9,21.4 L57.1,64" id="Shape" sketch:type="MSShapeGroup"></path>
                <path d="M54,73.5 L71.9,111.8 L45,85.6" id="Shape" sketch:type="MSShapeGroup"></path>
                <path d="M24.8,85.6 L0.2,110.1 L15.9,74.9" id="Shape" sketch:type="MSShapeGroup"></path>
                <path d="M15.8,62.5 L0.2,23.8 L24.8,50.1" id="Shape" sketch:type="MSShapeGroup"></path>
                <path d="M60.4,54.5 L69.2,56.4 L63.7,65.4" id="Shape" sketch:type="MSShapeGroup"></path>
                <path d="M63.6,69.6 L67.9,80.2 L58.8,81.7" id="Shape" sketch:type="MSShapeGroup"></path>
                <path d="M27.2,96.8 L18.5,103.2 L16.8,93.5" id="Shape" sketch:type="MSShapeGroup"></path>
                <path d="M12.5,82.4 L2.9,81.7 L7.7,71.1" id="Shape" sketch:type="MSShapeGroup"></path>
                <path d="M12.5,54.5 L1.6,54.5 L8.6,61.6 L11.3,64.4" id="Shape" sketch:type="MSShapeGroup"></path>
                <path d="M18.3,43.1 L22,33.9 L27.2,39.2" id="Shape" sketch:type="MSShapeGroup"></path>
                <path d="M36.4,7.5 L38.9,12.6 L36.4,14.4 L38.9,18.4 L36.4,21.4 L38.9,23.8 L37.7,26.1 L41.5,27.8 L36.4,31.4 L41.5,31.5 L36.4,37.3 L41.5,37.3 L36.4,42.7 L42.9,43.1 L36.4,48 L42.9,48.4 L36.4,53.7 L44,52.3 L36.4,58.4 L45,56.4 L42.2,58.5 L37.9,62.2 L45,58.8 L37.9,66.9" id="Shape" sketch:type="MSShapeGroup"></path>
                <path d="M63.3,68.1 L60.4,71 L58.5,68.4 L56.8,72.5 L52.6,68.1 L52.6,72.5 L48.3,68.4 L48.3,73.6 L44,68.4 L44,72.5 L40.8,69.2 L38.7,69.5 L34.2,69.5 L34.2,71.5 L30.9,72.5 L34.2,75 L30.5,75.3 L34.2,76.9 L27.3,77.8 L34.2,81 L27.3,83.6 L34.2,83.6 L27.3,88 L25.3,79.6 L34.2,86.6 L29,91.5 L34.2,90.9 L29,95.5 L33,93.6 C33,93.6 28.7,100.1 29.7,99.1 C30.7,98.1 34.2,98.4 34.2,98.4 L30,102.2 L34.2,103.3 L31,105.2 L34.6,108.1 L31.7,108.1 L34.2,111.8 L30.8,113.3 L34.2,114.8 L31.8,118 L32.4,120.6" id="Shape" sketch:type="MSShapeGroup"></path>
                <path d="M28.9,64 L27.2,66.9 L28.9,66.9 L26.4,62.3 L24.8,65.8 L22.8,61 L22.1,66.8 L19.5,61 L16.9,65.4 C15.3,68.1 14.5,63 14.5,63 L12.5,67.3 L8.7,65.4 L8.7,67.3 L31.2,65.6 L5.1,66.9" id="Shape" sketch:type="MSShapeGroup"></path>
                <path d="M20.2,99 L18.3,95.4 L22.8,98.4 L18.3,92.6 L25.2,95.4 L21.3,89.4 L24.8,90.8 L23.2,87.9 L18.3,100.9 L23.2,96.8" id="Shape" sketch:type="MSShapeGroup"></path>
                <path d="M44.3,94.4 L51,91.4 L45.6,89.4 L45.6,96.8 L51,96.8 L51.2,99 L47.8,96.2 L52.6,93.5 L52.6,102.2 L42.9,95.4" id="Shape" sketch:type="MSShapeGroup"></path>
                <path d="M56.8,72.4 L56.8,76.8 L60.4,70.9 L58.8,81.7 L63.3,73.5 L62.5,79.5 L64.8,75.8 L67.9,80.2" id="Shape" sketch:type="MSShapeGroup"></path>
                <path d="M58.5,59.4 L60.8,63.1 L60.8,56.5 L64.8,62.5 L64.8,55.5 L69.2,56.4" id="Shape" sketch:type="MSShapeGroup"></path>
                <path d="M48.3,37.3 L51.5,39.4 L47,39.4 L51.5,42.7 L44,42 L50.2,34.7 L52.6,43.7" id="Shape" sketch:type="MSShapeGroup"></path>
                <path d="M50.5,46.1 L45.6,46.1 L47,42.7 L47,48 L51.5,42.7" id="Shape" sketch:type="MSShapeGroup"></path>
                <path d="M21.3,37.2 L24.8,37.3 L19.9,39.2 L27.2,40.4 L19.9,43.1 L24.8,43.7 L23.2,46.1 L24.8,46.1 L24.8,48.4" id="Shape" sketch:type="MSShapeGroup"></path>
                <path d="M4.4,55.2 L4.4,56.9 L9.4,54.8 L7,59.2 L11.8,56.8 L8.1,61 L11.3,64.4" id="Shape" sketch:type="MSShapeGroup"></path>
                <path d="M4.5,78.3 L7.7,80.2 L7.1,74.4 L10.9,80.9 L10.1,72.4 L14.4,78.3" id="Shape" sketch:type="MSShapeGroup"></path>
                <path d="M8.1,61 L12.5,58.4 L10.9,62.8 L14.4,60" id="Shape" sketch:type="MSShapeGroup"></path>
            </g>
        </g>
    </g>
</svg>