<?xml version="1.0" encoding="UTF-8" standalone="no"?>
<svg width="45px" height="44px" viewBox="0 0 45 44" version="1.1" xmlns="http://www.w3.org/2000/svg" xmlns:xlink="http://www.w3.org/1999/xlink" xmlns:sketch="http://www.bohemiancoding.com/sketch/ns">
    <!-- Generator: Sketch 3.4.4 (17249) - http://www.bohemiancoding.com/sketch -->
    <title>filled_star</title>
    <desc>Created with Sketch.</desc>
    <defs></defs>
    <g id="Page-1" stroke="none" stroke-width="1" fill="none" fill-rule="evenodd" sketch:type="MSPage">
        <g id="Artboard-1" sketch:type="MSArtboardGroup" transform="translate(-106.000000, -152.000000)" stroke="#000000" stroke-width="0.3">
            <g id="filled_star" sketch:type="MSLayerGroup" transform="translate(107.000000, 152.000000)">
                <path d="M21.4,0.5 L14.4,16.3 L0.1,14.5 L11,27.9 L6.2,43.5 L21.4,33.8 L37.4,43.5 L33.1,27.6 L43.8,14.9 L29.1,16.3 L21.4,0.5 Z" id="Shape" sketch:type="MSShapeGroup"></path>
                <path d="M21.9,23.6 L21.3,0.5 L21.9,23.6 L21.9,23.6 Z" id="Shape" sketch:type="MSShapeGroup"></path>
                <path d="M37.4,43.5 L21.9,23.6 L43.8,14.9" id="Shape" sketch:type="MSShapeGroup"></path>
                <path d="M6.2,43.5 L21.9,23.6 L0.1,14.5" id="Shape" sketch:type="MSShapeGroup"></path>
                <path d="M29.1,16.3 L21.9,23.6 L14.4,16.3" id="Shape" sketch:type="MSShapeGroup"></path>
                <path d="M33.1,27.6 L21.9,23.6 L21.4,33.8" id="Shape" sketch:type="MSShapeGroup"></path>
                <path d="M11,27.9 L21.9,23.6" id="Shape" sketch:type="MSShapeGroup"></path>
                <path d="M23.6,23 L23.1,23.2 L23.1,24.1 L24.2,22.8 L24.2,24.1 L25.3,22.3 L25.3,24.5 L26.6,22 L26.6,24.4 L27.8,22 L28,25 L29.6,21.4 L29.1,25.2 L31.5,20.5 L30.3,26.1 L33.1,19.2 L31.1,26.9 L34.1,19.5 L32.8,27.3 L35.2,18.4 L34.2,25.8 L36.4,18.8 L36,23.6 L37.7,17.7 L38,21.4 L39,17.6 L39,19.5 L40.4,16.7 L40.4,18.2 L41.6,16.3 L41.6,16.9 L42.5,15.4" id="Shape" sketch:type="MSShapeGroup"></path>
                <path d="M22.4,24.2 L21.9,25.8 L23.1,25.8 L21.8,27.3 L23.5,26.7 L21.9,28.4 L24.5,27.9 L21.9,29.2 L25.4,28.7 L21.9,30.9 L25.3,29.5 L22.4,31.7 L25.9,30.6 L21.4,33.3 L27.3,31 L22.4,33.8 L27.3,32 L23.8,34.7 L28.6,33.2 L25.6,35.3 L29.1,33.8 L26.9,36.1 L29.6,34.6 L27.6,36.7 L30.7,35.8 L29.1,37.7 L31.4,36.8 L30,38 L31.9,37.6 L30.9,39 L32.9,38.6 L31.8,40.1 L33.8,39.7 L33.5,40.6 L34.6,40.6 L34.6,41.4 L35.7,41.4 L35.7,42.1" id="Shape" sketch:type="MSShapeGroup"></path>
                <path d="M7.4,42 L7.1,40.6 L7.8,40.6 L7.8,39.2 L8.6,39.8 L8.1,37.6 L9.5,38.6 L8.5,36 L10.5,37.2 L9,34.5 L11.9,36.4 L10,32.7 L12.6,34.5 L11,30.1 L13.7,33.2 L11.6,27.9 L14.4,32.5 L13.4,27.3 L15,31.4 L14.9,27.3 L16.1,30.1 L15.9,26.6 L16.9,28.7 L16.9,26.2 L17.8,27.9 L18.3,25.8 L18.9,26.7 L19.8,25 L20.5,25.5 L20.4,24.2" id="Shape" sketch:type="MSShapeGroup"></path>
                <path d="M2.3,15.4 L3,14.9 L3.3,15.9 L4.3,15 L4.3,16.3 L5.5,15.6 L5.5,16.3 L6.8,15.6 L6.8,17.3 L8.2,16.1 L8.2,17.9 L9.8,16.3 L9.8,18.6 L11.5,16.3 L11.5,18.9 L13.3,16.3 L13.3,19.3 L14.8,17.1 L14.4,20 L16.5,18.3 L15.7,21 L17.8,19.6 L17.8,21.4 L18.8,21.4 L18.8,22 L19.7,22 L20.5,22.6 L20.9,22.6" id="Shape" sketch:type="MSShapeGroup"></path>
                <path d="M21.9,2.1 L21.7,2.9 L22.4,3.6 L21.9,4.4 L23.1,4.4 L21.9,5.6 L23.9,5.8 L21.7,7.3 L24.3,7.3 L21.9,9.5 L25.2,9.5 L22.3,11 L25.6,11 L22.3,12.4 L26,12.2 C26,12.2 21.6,13.6 21.8,13.6 L27.1,13.6 C27.1,13.6 21.2,14.7 21.8,15 C22.4,15.3 27.7,15 27.7,15 L22.6,16.3 L27.7,16.3 L21.8,18 L27.5,17.1 L22.3,19.5 L25.1,20 L22.3,20 L23.4,20.6 L22.3,21.4 L23,21.7 L22.3,22.1 L22.3,22.7 L21.8,22.7" id="Shape" sketch:type="MSShapeGroup"></path>
            </g>
        </g>
    </g>
</svg>