<?xml version="1.0" encoding="utf-8"?>
<!-- Generator: Adobe Illustrator 16.0.0, SVG Export Plug-In . SVG Version: 6.00 Build 0)  -->
<!DOCTYPE svg PUBLIC "-//W3C//DTD SVG 1.1//EN" "http://www.w3.org/Graphics/SVG/1.1/DTD/svg11.dtd">
<svg version="1.1" id="Layer_1" xmlns="http://www.w3.org/2000/svg" xmlns:xlink="http://www.w3.org/1999/xlink" x="0px" y="0px"
	 width="225px" height="125px" viewBox="193.5 333.5 225 125" enable-background="new 193.5 333.5 225 125" xml:space="preserve">
<path fill="none" stroke="#010101" stroke-width="0.5" stroke-miterlimit="10" d="M233.2,388.5c0.1-0.7,0.3-1.4,0.4-2
	c0.4-1.5,1.1-3,1.8-4.5c0.9-1.6,1.9-3.3,3.2-4.8c0.8-1,1.7-2.1,2.6-3.1c1-1,2-2,3-3c0.8-0.8,4.6-3.4,5.5-4.1c0.9-0.7-1,0.6,0,0
	c0.6-0.4,1.3-0.7,1.9-1c0.8-0.4,1.5-0.7,2.3-1c0.3-0.1,0.6-0.2,0.9-0.3c1-0.3,2-0.5,3-0.7c0.5-0.1,1-0.2,1.4-0.2
	c1.7-0.1,2.9,0.5,3.3,1.5c0.3,1,0.2,2-0.2,3c-0.3,0.8-0.7,1.5-1.1,2.2c-0.1,0.1-0.2,0.2-0.3,0.4c-0.3,0.3-1.1,0.5-1.6,0.3
	c-0.3-0.1-0.4-0.3-0.3-0.5c0.2-0.6,0.4-1.1,0.6-1.7c0.2-0.7,0.4-1.4,0.6-2.1c0.1-0.4,0.1-0.9-0.3-1.2c-0.1-0.1-0.4-0.3-0.7-0.3
	c-0.8-0.1-1.5,0-2.2,0.2c-0.4,0.1-0.9,0.2-1.3,0.4c-0.8,0.3-1.6,0.7-2.3,1.1c-0.8,0.4-1.5,0.8-2.2,1.3c-0.9,0.6-1.8,1.2-2.7,1.8
	c-0.7,0.5-1.4,1-2,1.6c-0.8,0.7-1.6,1.4-2.4,2.2c-0.9,0.9-1.7,1.8-2.5,2.8c-0.8,1-1.6,2-2.3,3c-0.9,1.3-1.7,2.6-2.4,4
	c-1.1,2-1.8,3.9-1.9,6c0,0.7,0,1.5,0.6,2.2c0.5,0.7,1.3,0.9,2.5,0.9c1.5,0,2.8-0.5,3.8-1.1c1.1-0.6,1.9-1.4,2.6-2.1
	c0.4-0.4,0.7-0.8,1.1-1.3c0.1-0.1,0.3-0.2,0.4-0.2c0.2,0,0.4,0.1,0.4,0.2c0.4,0.6,0.3,1.2-0.1,1.8c-0.6,0.8-1.4,1.6-2.4,2.3
	c-0.9,0.6-2,1.2-3.2,1.7c-0.8,0.3-1.7,0.5-2.7,0.6c-0.7,0.1-1.4,0-2.1-0.1c-1.1-0.2-1.8-0.7-2.3-1.3c-0.5-0.7-0.7-1.4-0.8-2.1
	c0-0.1-0.1-0.2-0.1-0.3C233.2,389.9,233.2,389.2,233.2,388.5z"/>
<path fill="none" stroke="#010101" stroke-width="0.5" stroke-miterlimit="10" d="M354.7,385.9c-1.1,1-2.2,2-3.4,3
	c-0.4,0.4-0.9,0.7-1.5,1c-0.6,0.3-1.3,0.4-2,0.4c-0.2,0-0.5-0.2-0.6-0.3c-0.8-0.9-1.1-1.8-0.5-2.8c0.4-0.8,0.9-1.6,1.4-2.5
	c-0.5,0.3-0.9,0.6-1.4,0.9c-0.6,0.4-1.3,0.9-1.9,1.3c-0.8,0.5-1.5,1.1-2.3,1.6c-0.6,0.4-1.3,0.8-1.9,1.2c-0.4,0.3-0.7,0.2-0.9-0.2
	c-0.5-0.7-0.3-1.4,0.2-2.1c0.2-0.3,0.3-0.5,0.5-0.8c-0.6,0-1.1,0.1-1.6,0.2c-0.2,0-0.4,0.3-0.5,0.4c-0.8,0.9-1.8,1.7-3.1,2.4
	c-0.4,0.2-0.9,0.4-1.3,0.6c-0.6,0.3-1.3,0.2-1.9-0.1c-0.9-0.4-1.4-0.9-1.6-1.6c-0.2-0.5,0-1,0.2-1.4c0.6-1.4,1.5-2.7,2.9-4
	c0.9-0.8,1.8-1.5,3-2.1c0.8-0.4,1.7-0.7,2.7-0.6c0.5,0,0.6,0.3,0.8,0.5c0.9,0.8,0.8,1.7,0.6,2.6c-0.2,0.7-0.5,1.3-0.8,2
	c0.5,0,1.1,0,1.5-0.2c0.3-0.1,0.4-0.4,0.6-0.6c0.7-1.1,1.3-2.1,1.9-3.2c0-0.1,0.1-0.2,0.2-0.2c0.2-0.3,0.6-0.3,0.9-0.1
	c0.5,0.2,0.8,0.6,1,0.9c0.2,0.2,0,0.4-0.2,0.6c-1,1.3-2,2.6-2.9,3.9c0,0-0.1,0.1,0,0.2c0.6-0.4,1.3-0.8,1.9-1.2
	c0.7-0.4,1.3-0.9,1.9-1.3c0.9-0.6,1.8-1.3,2.7-1.9c0.6-0.5,1.3-1,1.9-1.4c0.4-0.3,0.9-0.2,1.2,0.1c0.4,0.3,0.7,0.6,0.8,1
	c0,0.4-0.4,0.7-0.7,1c-0.6,0.6-1.3,1.2-1.8,1.9c-0.6,0.7-1.1,1.5-1.6,2.2c-0.2,0.4-0.3,0.8-0.4,1.2c0,0.1,0.1,0.4,0.3,0.4
	c0.1,0.1,0.5,0,0.7-0.1c1-0.3,1.6-0.9,2.2-1.4c0.7-0.6,1.3-1.2,2-1.8c0.1-0.1,0.3-0.2,0.5-0.2c0.2,0,0.4,0.1,0.6,0.2
	C354.7,385.6,354.7,385.7,354.7,385.9z M336.7,382.6L336.7,382.6c-0.5,0.3-0.8,0.6-1.2,0.9c-1.5,1.3-2.5,2.7-3.2,4.2
	c-0.1,0.3-0.2,0.6-0.2,1s0.5,0.5,1,0.3c0.4-0.2,0.9-0.4,1.2-0.6c0.7-0.6,1.4-1.2,2.1-1.8c0.3-0.3,0.5-0.5,0.3-0.8
	c-0.4-0.7-0.4-1.4-0.2-2.1C336.4,383.3,336.6,383,336.7,382.6z M338,384.9c0.1-0.1,0.2-0.1,0.2-0.2c0.3-0.6,0.6-1.2,0.8-1.8
	c0.1-0.3,0.1-0.7,0-1c0-0.1-0.2-0.2-0.3-0.2c-0.1,0.1-0.3,0.1-0.3,0.2c-0.1,0.1-0.1,0.2-0.2,0.3c-0.1,0.7-0.3,1.4-0.4,2.1
	C337.8,384.4,337.9,384.6,338,384.9z"/>
<path fill="none" stroke="#010101" stroke-width="0.5" stroke-miterlimit="10" d="M319,381.8c0.1-0.1,0.2-0.2,0.3-0.3
	c0.4-0.4,0.9-0.4,1.5-0.3c0.5,0.1,0.8,0.5,0.6,0.9c-0.2,0.4-0.5,0.8-0.8,1.2c-1,1.2-1.9,2.5-2.9,3.7c-0.5,0.6-0.6,1.3-0.7,2
	c0,0.3-0.1,0.5-0.3,0.8c-0.1,0.2-0.5,0.2-0.8,0c-0.5-0.3-0.5-0.7-0.5-1.1c0-0.1,0-0.2,0-0.3c-0.1,0.1-0.2,0.1-0.3,0.2
	c-0.5,0.3-1,0.7-1.5,1c-0.6,0.3-1.3,0.6-2.1,0.5c-0.6,0-1-0.3-1.3-0.5c-0.4-0.3-0.7-0.7-1-1c-0.3,0.1-0.7,0.3-1,0.5
	c-0.6,0.3-1.3,0.6-1.9,0.8c-0.5,0.2-1.1,0.3-1.7,0.3c-0.9,0.1-1.2-0.1-1.5-0.6c-0.2-0.4-0.3-0.7-0.5-1.1c-0.7,0.3-1.3,0.7-2.1,1
	c-0.9,0.4-1.8,0.7-2.9,0.8c-0.9,0-1.2-0.1-1.5-0.6c-0.2-0.4-0.3-0.8-0.5-1.3c-0.4,0.1-0.8,0.3-1.2,0.4s-0.8,0.3-1.2,0.4
	c-0.9,0.3-1.7,0.6-2.6,0.8c-0.7,0.2-1.5,0.2-2.2,0.2c-0.3,0-0.5-0.1-0.7-0.3c-0.3-0.4-0.7-0.7-1-1.1c-0.6,0.3-1.3,0.6-2.1,0.9
	c-0.7,0.3-1.5,0.5-2.3,0.5c-0.8,0-1.1-0.1-1.4-0.6c-0.2-0.5-0.4-1-0.5-1.5c-0.2,0.1-0.6,0.2-0.9,0.3c-0.7,0.2-1.3,0.4-2.1,0.4
	c-0.3,0-0.5,0.1-0.6,0.2c-0.5,0.5-1.2,0.9-2.2,1.1c-0.8,0.2-1.6,0.1-2.3-0.2c-0.7-0.3-1-0.7-1.2-1.2c0-0.1-0.1-0.2-0.1-0.3
	c-0.3,0.2-0.5,0.4-0.7,0.5c-0.6,0.4-1.2,0.9-1.8,1.3c-0.2,0.1-0.4,0.1-0.6,0s-0.3-0.1-0.5-0.1c-0.4,0.1-0.8,0.1-1.2,0.1
	c-0.2,0-0.4-0.2-0.6-0.3c-0.8-0.9-1.1-1.8-0.5-2.8c0.4-0.8,0.9-1.6,1.4-2.5c-0.6,0.4-1.2,0.8-1.8,1.2c-0.6,0.4-1.3,0.9-1.9,1.3
	c-0.6,0.4-1.3,0.9-1.9,1.3s-1.3,0.8-2,1.2c-0.4,0.2-0.7,0.2-0.9-0.1c-0.5-0.7-0.3-1.4,0.1-2.1c0.2-0.3,0.3-0.5,0.5-0.8
	c-0.6,0-1.1,0.1-1.6,0.2c-0.2,0-0.4,0.3-0.5,0.4c-0.8,0.9-1.8,1.7-3.1,2.4c-0.4,0.2-0.9,0.4-1.3,0.6c-0.7,0.2-1.3,0.2-2-0.2
	c-1.3-0.6-1.7-1.4-1.5-2.3c0.2-0.7,0.6-1.4,1-2.1c0.5-0.9,1.2-1.7,2.1-2.5c0.7-0.6,1.5-1.1,2.3-1.6c0.6-0.4,1.4-0.8,2.3-1
	c0.4-0.1,0.9-0.1,1.4-0.1c0.3,0,0.5,0.3,0.7,0.4c0.7,0.7,0.9,1.4,0.7,2.1c-0.2,0.8-0.5,1.6-0.8,2.4c0.5,0,1,0,1.5-0.2
	c0.3-0.1,0.4-0.4,0.6-0.6c0.6-1,1.3-2.1,1.9-3.1c0.4-0.7,0.8-0.7,1.5-0.2c0.2,0.1,0.3,0.3,0.5,0.4c0.4,0.3,0.3,0.6,0,1
	c-1,1.3-2,2.6-3,3.9c0,0,0,0.1-0.1,0.2c0.7-0.5,1.4-0.9,2-1.3c0.7-0.4,1.3-0.9,1.9-1.3c0.8-0.5,1.5-1.1,2.3-1.6
	c0.8-0.6,1.5-1.2,2.3-1.7c0.4-0.3,0.9-0.2,1.2,0.1c0.4,0.3,0.8,0.6,0.7,1.1c0,0.4-0.4,0.7-0.7,1c-0.6,0.6-1.3,1.2-1.8,1.9
	c-0.6,0.7-1.1,1.5-1.6,2.2c-0.2,0.4-0.3,0.8-0.4,1.2c0,0.1,0.1,0.4,0.3,0.4c0.1,0.1,0.5,0,0.7-0.1c0.8-0.2,1.1-0.7,1.6-1.1
	c0.7-0.5,1.4-1.1,2-1.6c0.8-0.6,1.6-1.3,2.4-1.9c0.8-0.6,1.5-1.2,2.2-1.9c0.6-0.5,1.3-1.1,2-1.6c0.1-0.1,0.3-0.3,0.5-0.3
	c0.2-0.1,0.5-0.1,0.6,0c0.4,0.2,0.7,0.4,0.9,0.6c0.3,0.2,0.2,0.5-0.1,0.6c-1.1,0.7-1.2,1.6-1.5,2.5c-0.3,1.1-0.5,2.1-0.7,3.2
	c0,0.2-0.1,0.3-0.2,0.6c0.5-0.1,0.9-0.1,1.3-0.2c0.5-0.1,0.9-0.3,1.4-0.5c0.3-0.1,0.5-0.2,0.6-0.5c0.7-1.2,1.3-2.4,2.1-3.6
	c0.9-1.3,1.8-2.6,2.8-3.9c1-1.3,2.1-2.6,3.1-4c0.6-0.8,1.3-1.6,2-2.4c-0.2,0-0.3,0-0.5,0c-4.5,0-9.1,0.1-13.6,0.1
	c-0.8,0-1.5,0-2.3,0.1c-0.5,0-0.9,0-1.1-0.4c-0.1-0.2-0.3-0.4-0.4-0.7c-0.1-0.3,0-0.4,0.5-0.5c1.1-0.1,2.1-0.3,3.2-0.3
	c3.3-0.2,6.6-0.3,10-0.4c1.9-0.1,3.9-0.1,5.9-0.1c0.3,0,0.5-0.1,0.7-0.2c0.5-0.6,1.7-0.4,2.1,0c0.1,0.2,0.3,0.2,0.6,0.2
	c1.2,0,2.4,0,3.6,0c0.5,0,0.6,0.1,0.5,0.4c0,0.6-0.3,1.2-0.7,1.7c-0.1,0.2-0.3,0.2-0.6,0.2c-1.4-0.1-2.7-0.1-4.1-0.2
	c-0.3,0-0.5,0.1-0.6,0.2c-1,1.1-2.1,2.3-3.1,3.4c-0.9,1.1-1.8,2.2-2.6,3.3c-0.8,1-1.6,2-2.4,3.1c-1.2,1.6-2.5,3.2-3.3,4.9
	c-0.1,0.2-0.1,0.4-0.2,0.6c0,0.2,0.2,0.4,0.5,0.3c0.5,0,1.1-0.1,1.6-0.2c0.4-0.1,0.7-0.2,1.1-0.4c0.4-0.1,0.7-0.3,1.1-0.4
	c0.1,0,0.2-0.1,0.2-0.2c0.3-1.1,1-2.1,1.9-3.1c0.6-0.7,1.4-1.4,2.3-2c0.5-0.3,1.1-0.7,1.7-1c0.8-0.4,1.7-0.7,2.7-0.7
	c0.1,0,0.3,0.1,0.4,0.1c1,0.7,1.1,1.6,0.9,2.5c-0.1,0.8-0.5,1.5-1.3,2.1c-0.2,0.2-0.5,0.3-0.8,0.4c-1.1,0.3-2.3,0.3-3.5,0.2
	c-0.3,0-0.6-0.1-0.9-0.2c-0.1,0-0.3,0-0.3,0.1c-0.4,0.6-0.8,1.3-1,1.9c-0.2,0.5,0,0.7,0.9,0.6c0.9,0,1.7-0.3,2.5-0.5
	c0.4-0.1,0.8-0.2,1.2-0.3c0.8-0.2,1.6-0.5,2.3-0.7c0.1,0,0.2-0.1,0.2-0.2c0.9-1.9,2.1-3.8,3.5-5.6c1.4-2,2.9-4,4.4-5.9
	c1-1.3,2.1-2.5,3.1-3.8c0.4-0.4,0.8-0.8,1.2-1.2c0.6-0.5,1.5-0.4,2,0c0.1,0,0.1,0.1,0.2,0.1c0.3,0.3,0.3,0.5,0,0.8
	c-1.1,1.2-2.3,2.5-3.4,3.8c-1,1.2-2.1,2.4-3.1,3.6c-0.8,1-1.6,2-2.3,3c-0.8,1.1-1.7,2.2-2.4,3.4c-0.7,1-1.2,1.9-1.8,2.9v0.1
	c-0.1,0.4,0.1,0.6,0.8,0.5c0.8-0.1,1.4-0.3,2.1-0.5c0.6-0.3,1.2-0.5,1.9-0.7c0.4-0.2,0.7-0.4,0.8-0.7c0.5-1,1.1-2.1,1.7-3.1
	c0.8-1.2,1.6-2.4,2.5-3.6c0.8-1.1,1.7-2.2,2.5-3.4c0.8-1,1.5-2,2.3-3c0.9-1,1.8-2,2.7-3c0.2-0.2,0.5-0.4,0.7-0.5
	c0.4-0.2,0.9-0.2,1.2,0c0.3,0.2,0.6,0.4,0.7,0.7c0.1,0.1-0.1,0.3-0.2,0.5c-0.9,1.1-1.9,2.1-2.9,3.2c-1.1,1.2-2.1,2.4-3.1,3.6
	c-0.8,1-1.5,1.9-2.3,2.9c-0.9,1.1-1.7,2.3-2.5,3.4c-0.8,1.1-1.5,2.3-2.2,3.5c0,0,0,0,0,0.1c-0.2,0.5,0.1,0.7,0.9,0.6
	c0.7-0.1,1.4-0.3,2-0.5c0.6-0.2,1.2-0.5,1.8-0.7c0.1-0.1,0.3-0.2,0.3-0.3c0.4-1.1,1.2-2.1,2.1-3.1c0.7-0.7,1.4-1.3,2.4-1.9
	c0.7-0.4,1.4-0.8,2.1-1c0.5-0.2,1.2-0.3,1.8-0.4c0.1,0,0.3,0.1,0.4,0.1C318.5,381.2,318.8,381.5,319,381.8z"/>
<path fill="none" stroke="#010101" stroke-width="0.5" stroke-miterlimit="10" d="M311.5,388.9c0.2-0.1,0.4-0.1,0.4-0.1
	c0.5-0.3,1.1-0.6,1.5-0.9c0.8-0.6,1.5-1.2,2.2-1.9c0.9-0.8,1.7-1.7,2-2.7c0.1-0.4,0.4-0.8,0.1-1.3c-0.2,0-0.3,0-0.4,0.1
	c-0.6,0.4-1.3,0.7-1.9,1.1c-1.1,0.8-2,1.6-2.7,2.5c-0.6,0.8-1.2,1.7-1.4,2.6C311.4,388.4,311.5,388.6,311.5,388.9z"/>
<path fill="none" stroke="#010101" stroke-width="0.5" stroke-miterlimit="10" d="M255.2,382.6c-0.2,0.2-0.5,0.4-0.8,0.6
	c-1,0.9-1.9,1.8-2.6,2.8c-0.6,0.8-1.1,1.7-1.2,2.6c0,0.1,0.1,0.3,0.1,0.5c0.1,0.2,0.2,0.2,0.5,0.2c0.7-0.1,1.1-0.3,1.5-0.7
	c0.9-0.7,1.7-1.5,2.5-2.2c0.1-0.1,0.1-0.2,0-0.2c-0.4-0.5-0.5-1.1-0.4-1.7C254.9,383.8,255.1,383.2,255.2,382.6z"/>
<path fill="none" stroke="#010101" stroke-width="0.5" stroke-miterlimit="10" d="M291.1,384.6c0.1,0,0.2,0.1,0.2,0.1
	c0.8,0,1.7,0,2.5,0c0.3,0,0.6-0.2,0.7-0.3c0.3-0.5,0.5-1,0.7-1.5c0.1-0.2,0-0.5,0-0.7c0-0.2-0.2-0.2-0.5-0.1
	c-0.2,0.1-0.5,0.2-0.7,0.3c-0.6,0.4-1.3,0.9-1.9,1.3C291.9,383.9,291.5,384.3,291.1,384.6z"/>
<path fill="none" stroke="#010101" stroke-width="0.5" stroke-miterlimit="10" d="M276.5,384.3h-0.1c-1.1,0.8-2.3,1.7-3.4,2.6
	c0.9,0.2,1.7,0.4,2.6,0.6C276.1,386.4,276.1,385.3,276.5,384.3z"/>
<path fill="none" stroke="#010101" stroke-width="0.5" stroke-miterlimit="10" d="M256.6,384.8c0.1-0.1,0.2-0.1,0.2-0.2
	c0.5-0.6,0.8-1.3,0.9-2c0-0.3,0-0.5-0.1-0.8c0-0.1-0.2-0.2-0.3-0.2s-0.2,0.1-0.3,0.1c-0.1,0.1-0.2,0.2-0.2,0.3
	c-0.1,0.7-0.3,1.4-0.4,2.1C256.4,384.4,256.5,384.6,256.6,384.8z"/>
<path fill="none" stroke="#010101" stroke-width="0.5" stroke-miterlimit="10" d="M274.7,388.4c-0.2-0.1-0.4-0.2-0.6-0.2
	c-0.4-0.1-0.9-0.3-1.3-0.4c-0.2-0.1-0.4,0-0.4,0.1c0,0.3,0,0.5,0.1,0.8c0.1,0.3,0.4,0.3,0.8,0.3C274.1,389,274.4,388.7,274.7,388.4z
	"/>
<path fill="none" stroke="#010101" stroke-width="0.5" stroke-miterlimit="10" d="M329.9,372.8c-0.2,0-0.4,0-0.5,0
	c-1.5,0-3.1,0-4.6-0.1c-1.4,0-2.9,0-4.3-0.1c-0.6,0-1.2,0-1.5-0.4c-0.2-0.2-0.3-0.5-0.4-0.8c0-0.2,0.3-0.3,0.6-0.4
	c1.1-0.2,2.2-0.3,3.3-0.3c2.2,0,4.4-0.1,6.6-0.1c0.9,0,1.7,0,2.6-0.1c0.2,0,0.4-0.1,0.5-0.2c0.4-0.4,1.6-0.4,2,0
	c0.2,0.2,0.4,0.2,0.7,0.2c1,0,2,0,3.1,0c0.1,0,0.2,0,0.3,0c0.6,0.1,0.8,0.1,0.6,0.5c-0.2,0.5-0.4,1-0.6,1.5
	c-0.1,0.2-0.3,0.3-0.7,0.3c-1.4-0.1-2.7-0.1-4.1-0.2c-0.3,0-0.5,0.1-0.6,0.2c-0.7,0.8-1.5,1.6-2.3,2.5c-0.9,1-1.7,2-2.5,3
	c-0.8,1-1.6,2.1-2.4,3.1c-1.5,1.9-3,3.8-4.1,5.8c-0.2,0.3-0.3,0.6-0.3,1c-0.1,0.3,0.4,0.5,0.8,0.4c0.5-0.1,1.1-0.2,1.6-0.4
	c0.9-0.3,1.8-0.7,2.6-1c0.1-0.1,0.2-0.2,0.3-0.3c0.5-1.2,1.1-2.3,1.9-3.4c0.5-0.6,1-1.3,1.6-1.9c0.2-0.2,0.4-0.5,0.9-0.5
	c0.8,0,1.5,0.4,1.3,0.9s-0.5,1-0.8,1.4c-0.9,1.3-1.9,2.5-2.9,3.8c-0.4,0.5-0.5,1.1-0.5,1.6c0,0.3-0.1,0.6-0.2,0.8
	c-0.1,0.1-0.3,0.3-0.4,0.3c-0.2,0-0.6-0.1-0.6-0.2c-0.2-0.4-0.3-0.7-0.4-1.1c0-0.1,0-0.2,0-0.3c-0.4,0.2-0.7,0.3-1.1,0.5
	c-0.7,0.3-1.4,0.6-2.1,0.8c-0.6,0.2-1.3,0.3-2,0.3s-1-0.1-1.3-0.6c-0.5-0.8-0.5-1.6-0.1-2.5c0.6-1.5,1.5-2.9,2.5-4.3
	c0.9-1.3,1.9-2.7,2.9-4c1.2-1.5,2.4-3,3.6-4.5C329,373.8,329.5,373.3,329.9,372.8z"/>
<path fill="none" stroke="#010101" stroke-width="0.5" stroke-miterlimit="10" d="M332.5,378.1c0.1-0.6,0.2-1.2,0.9-1.6
	c0.5-0.3,1.1-0.6,1.8-0.6c0.4,0,0.6,0.1,0.7,0.3c0.3,0.8,0.1,1.6-0.8,2.2c-0.4,0.3-0.8,0.5-1.3,0.8c-0.5,0.2-1.1,0.1-1.2-0.3
	C332.6,378.6,332.6,378.4,332.5,378.1z"/>
<path fill="none" stroke="#010101" stroke-miterlimit="10" d="M349.3,391.7"/>
<path fill="none" stroke="#010101" stroke-miterlimit="10" d="M248.6,358.8"/>
<path fill="none" stroke="#010101" stroke-width="0.5" stroke-miterlimit="10" d="M336.7,382.6c-0.1,0.4-0.3,0.7-0.3,1.1
	c-0.1,0.7-0.2,1.4,0.2,2.1c0.2,0.4,0,0.6-0.3,0.8c-0.7,0.6-1.4,1.2-2.1,1.8c-0.3,0.3-0.8,0.5-1.2,0.6c-0.5,0.2-0.9,0-1-0.3
	c0-0.3,0.1-0.7,0.2-1c0.7-1.5,1.7-2.9,3.2-4.2C335.9,383.2,336.2,382.9,336.7,382.6L336.7,382.6z"/>
<path fill="none" stroke="#010101" stroke-width="0.5" stroke-miterlimit="10" d="M338,384.9c-0.1-0.3-0.2-0.5-0.1-0.7
	c0.1-0.7,0.2-1.4,0.4-2.1c0-0.1,0.1-0.2,0.2-0.3s0.2-0.1,0.3-0.2c0.1,0.1,0.3,0.2,0.3,0.2c0,0.3,0.1,0.7,0,1
	c-0.2,0.6-0.5,1.2-0.8,1.8C338.2,384.7,338.1,384.7,338,384.9z"/>
<path fill="none" stroke="#010101" stroke-width="0.5" stroke-miterlimit="10" d="M311.5,388.9c0-0.2-0.1-0.4-0.1-0.6
	c0.2-0.9,0.7-1.7,1.4-2.6s1.6-1.8,2.7-2.5c0.6-0.4,1.2-0.7,1.9-1.1c0.1-0.1,0.3-0.1,0.4-0.1c0.2,0.5,0,0.9-0.1,1.3
	c-0.3,1-1,1.9-2,2.7c-0.7,0.6-1.4,1.3-2.2,1.9c-0.4,0.3-1,0.6-1.5,0.9C311.9,388.8,311.8,388.8,311.5,388.9z"/>
<path fill="none" stroke="#010101" stroke-width="0.5" stroke-miterlimit="10" d="M255.2,382.6c-0.1,0.6-0.3,1.1-0.4,1.7
	s0,1.1,0.4,1.7c0,0.1,0,0.2,0,0.2c-0.8,0.7-1.6,1.5-2.5,2.2c-0.4,0.3-0.8,0.6-1.5,0.7c-0.2,0-0.4,0-0.5-0.2
	c-0.1-0.2-0.1-0.3-0.1-0.5c0.1-0.9,0.7-1.7,1.2-2.6c0.7-1,1.6-1.9,2.6-2.8C254.7,383,255,382.8,255.2,382.6z"/>
<path fill="none" stroke="#010101" stroke-width="0.5" stroke-miterlimit="10" d="M291.1,384.6c0.4-0.3,0.8-0.7,1.2-1
	c0.6-0.4,1.2-0.9,1.9-1.3c0.2-0.1,0.4-0.2,0.7-0.3c0.2-0.1,0.4-0.1,0.5,0.1c0,0.2,0.1,0.5,0,0.7c-0.2,0.5-0.4,1-0.7,1.5
	c-0.1,0.2-0.5,0.3-0.7,0.3c-0.8,0.1-1.7,0-2.5,0C291.3,384.7,291.2,384.7,291.1,384.6z"/>
<path fill="none" stroke="#010101" stroke-width="0.5" stroke-miterlimit="10" d="M276.5,384.3c-0.3,1-0.4,2.1-1,3.1
	c-0.8-0.2-1.7-0.4-2.6-0.6c1.2-0.9,2.3-1.7,3.4-2.6C276.4,384.3,276.4,384.3,276.5,384.3z"/>
<path fill="none" stroke="#010101" stroke-width="0.5" stroke-miterlimit="10" d="M256.6,384.8c-0.1-0.3-0.2-0.5-0.1-0.6
	c0.1-0.7,0.2-1.4,0.4-2.1c0-0.1,0.1-0.2,0.2-0.3c0.1-0.1,0.2-0.2,0.3-0.1c0.1,0,0.3,0.1,0.3,0.2c0.1,0.3,0.1,0.5,0.1,0.8
	c-0.1,0.7-0.4,1.4-0.9,2C256.7,384.7,256.7,384.7,256.6,384.8z"/>
<path fill="none" stroke="#010101" stroke-width="0.5" stroke-miterlimit="10" d="M274.7,388.4c-0.3,0.3-0.7,0.6-1.3,0.6
	c-0.4,0-0.7-0.1-0.8-0.3c-0.1-0.2-0.1-0.5-0.1-0.8c0-0.1,0.2-0.2,0.4-0.1c0.5,0.1,0.9,0.3,1.3,0.4
	C274.3,388.2,274.5,388.3,274.7,388.4z"/>
<g>
	<path fill="none" stroke="#010101" stroke-width="0.5" stroke-miterlimit="10" d="M284.1,399.7v13.5V399.7z"/>
	<path fill="none" stroke="#010101" stroke-width="0.5" stroke-miterlimit="10" d="M293.9,399.7h-9.8H293.9z"/>
	<path fill="none" stroke="#010101" stroke-width="0.5" stroke-miterlimit="10" d="M297.7,400.7"/>
	<path fill="none" stroke="#010101" stroke-width="0.5" stroke-miterlimit="10" d="M293.4,405.3v-5V405.3z"/>
	<path fill="none" stroke="#010101" stroke-width="0.5" stroke-miterlimit="10" d="M297.6,405.3h-4.7H297.6z"/>
	<path fill="none" stroke="#010101" stroke-width="0.5" stroke-miterlimit="10" d="M297.2,413.8v-9.1V413.8z"/>
	<line fill="none" stroke="#010101" stroke-width="0.5" stroke-miterlimit="10" x1="284.1" y1="413.2" x2="296.9" y2="413.2"/>
	<rect x="288.3" y="402.6" fill="none" stroke="#010101" stroke-width="0.5" stroke-miterlimit="10" width="2.5" height="1.7"/>
	<rect x="287.3" y="408" fill="none" stroke="#010101" stroke-width="0.5" stroke-miterlimit="10" width="5.8" height="2.5"/>
	<polygon fill="none" stroke="#010101" stroke-width="0.5" stroke-miterlimit="10" points="335,413.5 335,399.7 340.4,399.7 
		343.6,402 343.6,411.4 339.7,413.5 	"/>
	<polygon fill="none" stroke="#010101" stroke-width="0.5" stroke-miterlimit="10" points="337.9,403.7 339.4,403.7 340.6,404.1 
		340.6,409 339.4,409.7 337.9,409.7 	"/>
	<polygon fill="none" stroke="#010101" stroke-width="0.5" stroke-miterlimit="10" points="356.3,398.6 359,398.6 359,413.1 
		356.3,413.1 356.3,402.7 353.8,402.7 353.8,401.1 356.4,400.1 	"/>
	<polygon fill="none" stroke="#010101" stroke-width="0.5" stroke-miterlimit="10" points="364.1,398.6 370.6,398.6 371.7,400.2 
		371.7,402.7 370.7,404.5 372.4,405.9 372.4,411.4 371.5,413.1 363.5,413.1 362.7,411.5 362.7,406.1 364.3,404.5 362.7,403.3 
		362.7,400.3 	"/>
	<rect x="366.3" y="400.8" fill="none" stroke="#010101" stroke-width="0.5" stroke-miterlimit="10" width="2.4" height="2.1"/>
	<rect x="365.9" y="406.9" fill="none" stroke="#010101" stroke-width="0.5" stroke-miterlimit="10" width="3.1" height="3.5"/>
	<path fill="none" stroke="#010101" stroke-width="0.5" stroke-miterlimit="10" d="M293.4,399.9v5.7V399.9z"/>
	<path fill="none" stroke="#010101" stroke-width="0.5" stroke-miterlimit="10" d="M298,400.2"/>
	<path fill="none" stroke="#010101" stroke-width="0.5" stroke-miterlimit="10" d="M297.2,404.9"/>
	<path fill="none" stroke="#010101" stroke-width="0.5" stroke-miterlimit="10" d="M301,400.6v13.1V400.6z"/>
	<polyline fill="none" stroke="#010101" stroke-width="0.5" stroke-miterlimit="10" points="301,413.2 312.2,413.2 312.9,413.2 
		312.9,400.2 310,400.2 309.6,400.2 309.6,410.8 304.3,410.8 304.3,400.4 301,400.4 300.3,400.2 	"/>
	<path fill="none" stroke="#010101" stroke-width="0.5" stroke-miterlimit="10" d="M320.3,400.4"/>
	<polyline fill="none" stroke="#010101" stroke-width="0.5" stroke-miterlimit="10" points="316.5,413.2 319.6,413.2 319.6,412.6 
		319.6,400.1 316,400.1 316,412.9 316,413.3 316,413.6 	"/>
	<path fill="none" stroke="#010101" stroke-width="0.5" stroke-miterlimit="10" d="M320,400.8"/>
	<polygon fill="none" stroke="#010101" stroke-width="0.5" stroke-miterlimit="10" points="322.8,399.7 322.8,413.5 331.9,413.5 
		331.9,410.5 325.9,410.5 325.9,399.7 	"/>
</g>
<path fill="#010101" d="M231.1,399.7"/>
<path fill="none" stroke="#010101" stroke-width="0.5" stroke-miterlimit="10" d="M276.5,406.9c-0.3,0.4-0.7,0.8-1,1.2
	c-0.9,1-1.8,2.1-2.4,3.2c-0.1,0.1-0.1,0.3-0.1,0.4c0,0.1,0.1,0.2,0.4,0.2c0.4,0,0.8-0.1,1.1-0.1c0.3-0.1,0.5-0.2,0.8-0.2
	c0.3-0.1,0.5-0.2,0.8-0.3"/>
<path fill="none" stroke="#010101" stroke-width="0.5" stroke-miterlimit="10" d="M275.6,405.5c0.1,0,0.2,0,0.3-0.1
	c0.2-0.4,0.8-0.3,0.9,0c0.1,0.1,0.1,0.1,0.3,0.1c0.5,0,1.1,0,1.6,0c0.2,0,0.3,0.1,0.2,0.2c0,0.4-0.2,0.8-0.3,1.1
	c-0.1,0.1-0.2,0.1-0.3,0.1c-0.6,0-1.2-0.1-1.9-0.1c-0.1,0-0.1,0-0.2,0"/>
<path fill="none" stroke="#010101" stroke-width="0.5" stroke-miterlimit="10" d="M274.8,406.9C274.8,406.9,274.9,406.9,274.8,406.9
	c-1.1,0-1.9,0-3,0.1c-0.2,0-0.4,0-0.5,0.1c-0.1,0-0.2,0-0.3-0.2c0-0.1-0.1-0.3-0.1-0.4c0-0.2,0-0.3,0.1-0.3c0.3-0.1,0.5-0.2,0.8-0.2
	c0.9-0.1,1.3-0.1,2.4-0.2c0.5,0,0.9,0,1.4-0.1"/>
<path fill="none" stroke="#010101" stroke-width="0.5" stroke-miterlimit="10" d="M274.4,407.4"/>
<path fill="none" stroke="#010101" stroke-width="0.5" stroke-miterlimit="10" d="M273,406.1"/>
<path fill="none" stroke="#010101" stroke-width="0.5" stroke-miterlimit="10" d="M272.1,410.2c0.4-0.7,0.8-1.3,1.3-2
	c0.3-0.4,0.6-0.8,1-1.3"/>
<path fill="none" stroke="#010101" stroke-width="0.5" stroke-miterlimit="10" d="M272.1,410.2"/>
<path fill="none" stroke="#010101" stroke-width="0.5" stroke-miterlimit="10" d="M271.9,410.5"/>
<path fill="none" stroke="#010101" stroke-width="0.5" stroke-miterlimit="10" d="M271.5,411.5"/>
<path fill="none" stroke="#010101" stroke-width="0.5" stroke-miterlimit="10" d="M276.1,411.9c-0.5,0.2-1,0.4-1.5,0.6
	c-0.5,0.2-1.1,0.3-1.7,0.3s-0.8-0.1-1-0.4c-0.1-0.2-0.2-0.4-0.2-0.5"/>
<path fill="none" stroke="#010101" stroke-width="0.5" stroke-miterlimit="10" d="M273.3,424.4"/>
<path fill="none" stroke="#010101" stroke-width="0.5" stroke-miterlimit="10" d="M262.3,409.9c0.2-0.5,0.8-1.4,1.5-2
	c0.5-0.4,1.1-0.9,1.8-1.2c0.5-0.2,1-0.5,1.6-0.7c0.4-0.1,0.9-0.2,1.3-0.2c0.1,0,0.2,0,0.3,0.1c0.2,0.2,0.4,0.4,0.6,0.6
	c0.1-0.1,0.2-0.1,0.2-0.2c0.3-0.2,0.7-0.3,1.1-0.2c0.4,0.1,0.6,0.3,0.4,0.6c-0.2,0.3-0.3,0.5-0.6,0.8c-0.7,0.8-1.4,1.6-2.1,2.4
	c-0.4,0.4-0.4,0.8-0.5,1.3c0,0.2-0.1,0.3-0.2,0.5c-0.1,0.1-0.4,0.2-0.6,0c-0.3-0.2-0.3-0.5-0.4-0.7c0-0.1,0-0.1,0-0.2
	c-0.1,0-0.2,0.1-0.2,0.1c-0.4,0.2-0.7,0.4-1.1,0.6c-0.4,0.2-0.9,0.4-1.6,0.3c-0.4,0-0.7-0.2-0.9-0.4c-0.3-0.2-0.4-0.3-0.6-0.7
	C262.3,410.8,262.1,410.4,262.3,409.9z"/>
<path fill="none" stroke="#010101" stroke-width="0.5" stroke-miterlimit="10" d="M263.9,411c0-0.2-0.1-0.3-0.1-0.4
	c0.1-0.6,0.5-1.1,1-1.6c0.5-0.6,1.2-1.1,1.9-1.6c0.4-0.3,0.9-0.5,1.4-0.7c0.1,0,0.2,0,0.3-0.1c0.2,0.3,0,0.6-0.1,0.8
	c-0.2,0.6-0.8,1.2-1.5,1.7c-0.5,0.4-1,0.8-1.6,1.2c-0.3,0.2-0.7,0.4-1.1,0.6C264.2,411,264.1,411,263.9,411z"/>
<path fill="none" stroke="#010101" stroke-width="0.5" stroke-miterlimit="10" d="M261.8,410.6"/>
<path fill="none" stroke="#010101" stroke-width="0.5" stroke-miterlimit="10" d="M260.9,407.4"/>
<path fill="none" stroke="#010101" stroke-width="0.5" stroke-miterlimit="10" d="M272.1,410.1c0.1-0.1-0.6,1.7-0.5,1.9"/>
<g>
	<g>
		<path fill="#010101" d="M272,410.2L272,410.2c0.1,0,0.1,0,0.2-0.1c-0.1-0.1-0.1-0.1-0.2-0.1C272,410,272,410.1,272,410.2
			C272,410.2,272,410.3,272,410.2c0.1,0.2,0.2,0.1,0.2-0.1l0,0C272.1,410,272,410,272,410.2c-0.2,0.1-0.3,0.4-0.3,0.6
			c0.1,0,0.2,0,0.2,0c0-0.1,0.1-0.2,0.1-0.3c-0.1,0-0.2,0-0.2-0.1c0,0.1,0,0.1-0.1,0.2c0.1,0,0.2,0,0.2,0c0-0.2,0.1-0.3,0.2-0.4
			c0.1-0.1-0.1-0.3-0.2-0.2c-0.2,0.2-0.3,0.4-0.3,0.7c0,0.1,0.2,0.1,0.2,0c0.1-0.2,0.1-0.2,0.1-0.3s-0.2-0.2-0.2-0.1
			c-0.1,0.1-0.1,0.3-0.2,0.4c0,0.1,0.2,0.2,0.2,0c0.1-0.2,0.1-0.4,0.2-0.6C272.1,410.2,272,410.2,272,410.2L272,410.2
			c0,0,0.1,0,0.1-0.1c0,0,0,0,0,0.1H272L272,410.2c0.1,0.2,0.2,0.1,0.2,0v-0.1C272.3,410,272,410,272,410.2L272,410.2z"/>
	</g>
</g>
<g>
	<g>
		<path fill="#010101" d="M271.5,412.1c0.1,0.2,0.1,0.2,0.3,0.5c0.1-0.1,0.1-0.1,0.2-0.2c-0.1-0.1-0.2-0.2-0.2-0.3
			c-0.1,0-0.1,0.1-0.2,0.1c0,0,0,0.1,0.1,0.1c0.1,0,0.1-0.1,0.2-0.1c0,0,0-0.1-0.1-0.1c-0.1-0.1-0.3,0-0.2,0.2
			c0.1,0.2,0.1,0.2,0.3,0.4c0.1-0.1,0.1-0.1,0.2-0.2c-1-0.9,0.2-2.3,0.8-3.2c0.1-0.1-0.1-0.3-0.2-0.1c-0.6,1-1.8,2.4-0.7,3.5
			c0.1,0.1,0.3-0.1,0.2-0.2c-0.1-0.1-0.2-0.2-0.3-0.3c-0.1,0.1-0.1,0.1-0.2,0.2c0,0,0,0,0,0.1c0.1,0.1,0.3,0,0.2-0.1
			c0,0,0-0.1-0.1-0.1c-0.1-0.1-0.3,0-0.2,0.1c0.1,0.2,0.2,0.3,0.3,0.4s0.2-0.1,0.2-0.2c-0.1-0.1-0.2-0.3-0.3-0.5
			C271.6,411.8,271.4,411.9,271.5,412.1L271.5,412.1z"/>
	</g>
</g>
<g>
	<g>
		<path fill="#010101" d="M271.5,411.5c0,0.2,0,0.3,0.1,0.5c0,0.2,0.3,0.1,0.2-0.1c0-0.1,0-0.1,0-0.2c-0.1,0-0.2,0-0.2,0.1
			s0,0.2,0.1,0.3c0,0.1,0.2,0.1,0.2,0c0-0.1,0-0.2,0-0.3c-0.1,0-0.2,0-0.2,0c0,0.1,0,0.2,0,0.4c0,0.2,0.3,0.2,0.2,0
			c0-0.2,0-0.3,0-0.5c0-0.1-0.3-0.1-0.2,0c0,0.1,0,0.2,0,0.4c0,0.2,0.3,0.2,0.2,0c0-0.1,0-0.3,0-0.4
			C271.9,411.4,271.6,411.4,271.5,411.5c0.1,0.2,0.1,0.4,0.2,0.6c0,0.2,0.3,0.1,0.2-0.1c-0.1-0.3-0.2-0.5,0-0.8
			c0.1-0.1-0.2-0.2-0.2-0.1c-0.1,0.3,0,0.6,0,0.9c0.1,0,0.2,0,0.2-0.1c0-0.2-0.1-0.3-0.1-0.5C271.8,411.5,271.7,411.5,271.5,411.5
			c0.1,0.2,0.1,0.3,0.1,0.5c0.1,0,0.2,0,0.2,0c0-0.1,0-0.2,0-0.4c-0.1,0-0.2,0-0.2,0c0,0.1,0,0.3,0,0.4c0.1,0,0.2,0,0.2,0
			c0-0.1,0-0.2,0-0.4c0-0.2-0.2-0.2-0.2,0c0,0.1,0,0.2,0,0.3c0.1,0,0.2,0,0.2,0c0-0.1,0-0.2-0.1-0.3c0-0.2-0.3-0.1-0.2,0.1
			c0,0.1,0,0.1,0,0.2c0.1,0,0.2,0,0.2-0.1s-0.1-0.3-0.1-0.4C271.8,411.3,271.5,411.3,271.5,411.5L271.5,411.5z"/>
	</g>
</g>
<g>
	<g>
		<path fill="#010101" d="M272,410.8c0-0.2,0.1-0.3,0.2-0.4c-0.1,0-0.1-0.1-0.2-0.1c0,0.1-0.1,0.1-0.1,0.2c0.1,0,0.2,0.1,0.2,0.1
			c0.1-0.3,0.3-0.5,0.4-0.7c-0.1,0-0.1-0.1-0.2-0.1c-0.2,0.3-0.4,0.5-0.5,0.9C271.9,410.7,272,410.7,272,410.8
			c0-0.2,0.1-0.3,0.3-0.5c-0.1,0-0.1-0.1-0.2-0.1c0,0.2-0.1,0.3-0.2,0.5c0.1,0,0.2,0,0.2,0.1c0-0.3,0.2-0.5,0.4-0.7
			c0.1-0.1-0.1-0.3-0.2-0.2c-0.2,0.3-0.5,0.5-0.4,0.9c0,0.1,0.2,0.2,0.2,0.1c0.1-0.2,0.2-0.4,0.3-0.6c0-0.1-0.1-0.2-0.2-0.1
			c-0.2,0.2-0.3,0.4-0.3,0.6c0,0.2,0.2,0.2,0.2,0.1c0.1-0.3,0.3-0.5,0.5-0.8c0.1-0.1-0.1-0.3-0.2-0.1c-0.2,0.2-0.4,0.5-0.5,0.8
			c0,0.1,0.2,0.2,0.2,0.1c0.1-0.1,0.1-0.1,0.1-0.2c0-0.1-0.1-0.2-0.2-0.1c-0.2,0.1-0.2,0.3-0.3,0.5C271.8,410.8,272,410.9,272,410.8
			L272,410.8z"/>
	</g>
</g>
<g>
	<g>
		<path fill="#010101" d="M275.9,411.3L275.9,411.3c0.1,0.1,0.2,0.1,0.2,0s0-0.1,0-0.2c0-0.1-0.1-0.1-0.2-0.1c0,0,0,0-0.1,0
			C275.8,411.1,275.9,411.1,275.9,411.3c0.1-0.2,0.1-0.2,0.2-0.3c-0.1,0-0.1-0.1-0.2-0.1c-0.1,0.1-0.1,0.2-0.2,0.3
			C275.9,411.2,275.9,411.3,275.9,411.3c0.1,0,0.2-0.1,0.2-0.1c0.1-0.1-0.1-0.3-0.2-0.2l-0.1,0.1c0.1,0,0.1,0.1,0.2,0.1
			s0.1,0.1,0.2,0.1c0,0.2,0,0.4-0.2,0.5c0.1,0.1,0.1,0.1,0.2,0.2c0-0.1,0.1-0.1,0.1-0.2c0.1-0.1-0.1-0.3-0.2-0.2l-0.1,0.1
			c0.1,0,0.1,0.1,0.2,0.1v-0.1c0-0.1-0.1-0.2-0.2-0.1l0,0c0.1,0.1,0.1,0.1,0.2,0.2c0.1-0.1,0.2-0.4,0.1-0.6
			c-0.1-0.2-0.3-0.2-0.5-0.1C275.7,411.2,275.9,411.4,275.9,411.3c0.1,0.1,0.2,0,0.2,0c0-0.1-0.1-0.2-0.1-0.2l0,0
			C275.8,411.2,275.9,411.3,275.9,411.3c0.3,0.3,0.3,0.4,0.1,0.6c0.1,0,0.1,0.1,0.2,0.1c0.2-0.4,0.3-1.6-0.4-1
			C275.9,411.1,275.9,411.2,275.9,411.3c0.2-0.1,0.3-0.1,0.4-0.1c0,0.3-0.1,0.5-0.4,0.6c-0.1,0.1,0,0.3,0.1,0.2
			c0.3-0.2,0.7-0.7,0.4-1c-0.2-0.3-0.5-0.2-0.7,0.1C275.7,411.2,275.9,411.3,275.9,411.3c0.4-0.3,0.1,0.5,0.1,0.7
			c0,0.1,0.1,0.2,0.2,0.1c0.4-0.3,0.4-0.9-0.1-1c0,0.1,0,0.2,0,0.2l0,0c0.1-0.1,0-0.3-0.1-0.2C275.9,411.1,275.9,411.1,275.9,411.3
			C275.9,411.2,276,411.3,275.9,411.3c0.3-0.1,0.2,0.4,0.1,0.4c-0.1,0.1,0.1,0.2,0.2,0.2l0,0c-0.1,0-0.1-0.1-0.2-0.1v0.1
			c0,0.1,0.1,0.2,0.2,0.1l0.1-0.1c-0.1-0.1-0.1-0.1-0.2-0.2c-0.1,0.1-0.1,0.1-0.1,0.2c-0.1,0.1,0.1,0.2,0.2,0.2
			c0.3-0.3,0.4-0.6,0.2-1c-0.2-0.3-0.5-0.1-0.6,0.1C275.7,411.3,275.9,411.3,275.9,411.3c0.1-0.1,0.2-0.1,0.2-0.1
			c-0.1-0.1-0.1-0.1-0.2-0.2c-0.1,0.1-0.1,0.1-0.2,0.2C275.7,411.3,275.9,411.4,275.9,411.3c0.2,0,0.3-0.1,0.4-0.3
			c0-0.1-0.1-0.2-0.2-0.1c-0.2,0.1-0.1,0.1-0.3,0.2C275.8,411.1,275.8,411.3,275.9,411.3s0.1,0,0.2-0.1c-0.1,0-0.1-0.1-0.2-0.1l0,0
			c0.1,0,0.1,0,0.2,0L276,411C275.8,411,275.8,411.2,275.9,411.3L275.9,411.3z"/>
	</g>
</g>
<path fill="#010101" stroke="#010101" stroke-miterlimit="10" d="M362.8,395.2"/>
<path fill="#010101" stroke="#010101" stroke-miterlimit="10" d="M254.8,395.2"/>
<path fill="none" stroke="#010101" stroke-miterlimit="10" d="M403.7,401.1c0,27.1-111.7,23.2-101.2,23.2c10.6,0-94.4,0.3-94.4-25.1
	c0-38.9,29.8-42.9,96.1-42.9C342.3,356.3,403.7,360.6,403.7,401.1z"/>
</svg>
