<?xml version="1.0" encoding="UTF-8" standalone="no"?>
<svg width="61px" height="66px" viewBox="0 0 61 66" version="1.1" xmlns="http://www.w3.org/2000/svg" xmlns:xlink="http://www.w3.org/1999/xlink" xmlns:sketch="http://www.bohemiancoding.com/sketch/ns">
    <!-- Generator: Sketch 3.4.4 (17249) - http://www.bohemiancoding.com/sketch -->
    <title>coffee</title>
    <desc>Created with Sketch.</desc>
    <defs></defs>
    <g id="globe" stroke="none" stroke-width="1" fill="none" fill-rule="evenodd" sketch:type="MSPage">
        <g id="Artboard-3" sketch:type="MSArtboardGroup" transform="translate(-2064.000000, -201.000000)" fill="#4A90E2">
            <g id="coffee" sketch:type="MSLayerGroup" transform="translate(2064.000000, 201.000000)">
                <g id="CoffeeCup" sketch:type="MSShapeGroup">
                    <g id="Page-1">
                        <g id="CoffeeCup">
                            <path d="M57.3224567,40.2610658 C54.0098292,39.0984677 52.0392043,42.2161517 51.1909174,38.1788428 C51.1774974,38.1159805 51.1174604,38.2183965 51.0263455,38.430998 C51.0376466,38.3865 51.0517729,38.3427084 51.0517729,38.2982104 C51.0517729,36.2527158 39.7754193,34.5942831 25.8659152,34.5942831 C11.9564112,34.5942831 0.68076389,36.2520095 0.68076389,38.2982104 C0.68076389,38.3292883 0.69135865,38.3603663 0.69630287,38.3914442 C0.67935125,38.3963885 0.66098701,38.4013327 0.6440354,38.4062769 C0.60165637,39.0815161 0.57976053,39.7624059 0.57976053,40.4496525 C0.57976053,50.3945982 5.06487457,59.1515185 11.8660026,64.2645485 C13.0328386,64.8578549 19.1064599,65.7513462 25.8856921,65.6602312 C33.7674854,65.552871 39.0804032,64.9044719 39.7796572,64.1776715 C42.4544803,62.1427717 44.7584869,59.5350487 46.573722,56.5190744 C50.0247877,52.8589388 59.1002571,54.9814219 60.8321468,47.0212274 C60.85263,46.922343 61.8033329,41.8333278 57.3224567,40.2610658 L57.3224567,40.2610658 L57.3224567,40.2610658 Z M50.9521822,38.6089899 C50.9366432,38.64925 50.918279,38.6951606 50.9020337,38.7396586 C50.9013273,38.7269449 50.9013273,38.7142312 50.900621,38.7015175 C50.9225169,38.6711458 50.9345243,38.6400679 50.9521822,38.6089899 L50.9521822,38.6089899 L50.9521822,38.6089899 Z M25.7649119,42.0021376 C13.1861094,42.0021376 2.98971472,40.6643729 2.98971472,39.0151223 C2.98971472,37.3658717 13.1868157,36.028107 25.7649119,36.028107 C38.3430081,36.028107 48.540109,37.3658717 48.540109,39.0151223 C48.540109,40.6643729 38.3437144,42.0021376 25.7649119,42.0021376 L25.7649119,42.0021376 L25.7649119,42.0021376 Z M58.4214863,47.9754619 C56.5108983,51.5112857 53.000502,51.0246331 48.2992549,53.2325806 C48.279478,53.2417627 50.7282796,45.3578505 50.7748966,45.2165871 C51.6048193,42.6724326 54.6610536,41.5974179 56.5292626,42.2175643 C60.1230043,43.410534 58.6263182,47.5961696 58.4214863,47.9754619 L58.4214863,47.9754619 L58.4214863,47.9754619 Z" id="cup"></path>
                            <path d="M22.8944389,28.846274 C25.1412338,27.6978023 25.4965114,25.7434227 25.5777378,24.3668105 C25.8849858,19.174673 19.8502119,17.557913 22.8944389,9.77924197 C22.9085652,9.7432198 16.9677315,14.8958036 20.0938913,19.3124048 C24.2745827,25.218629 22.8675989,28.859694 22.8944389,28.846274 L22.8944389,28.846274 L22.8944389,28.846274 Z M30.6766415,29.0772397 C34.1375956,27.3262794 34.6856977,24.345621 34.8114222,22.2464464 C35.2846547,14.3293372 25.9874018,11.8628776 30.6766415,0.00028074778 C30.6985373,-0.0541056744 21.5467857,7.80367285 26.3631625,14.5391134 C32.8033625,23.5460699 30.6356751,29.0984292 30.6766415,29.0772397 L30.6766415,29.0772397 L30.6766415,29.0772397 Z" id="smoke"></path>
                        </g>
                    </g>
                </g>
            </g>
        </g>
    </g>
</svg>
