<?xml version="1.0" encoding="UTF-8" standalone="no"?>
<svg width="44px" height="42px" viewBox="0 0 44 42" version="1.1" xmlns="http://www.w3.org/2000/svg" xmlns:xlink="http://www.w3.org/1999/xlink" xmlns:sketch="http://www.bohemiancoding.com/sketch/ns">
    <!-- Generator: Sketch 3.4.4 (17249) - http://www.bohemiancoding.com/sketch -->
    <title>linedstar</title>
    <desc>Created with Sketch.</desc>
    <defs></defs>
    <g id="Page-1" stroke="none" stroke-width="1" fill="none" fill-rule="evenodd" sketch:type="MSPage">
        <g id="Artboard-1" sketch:type="MSArtboardGroup" transform="translate(-64.000000, -125.000000)" stroke="#000000">
            <g id="linedstar" sketch:type="MSLayerGroup" transform="translate(65.000000, 125.000000)">
                <path d="M21,0.3 L15.3,13.8 L0.3,13.3 L10.6,24.6 L5,40.1 L19.8,31.6 L35.1,41.1 L29.8,26.6 L41.6,14.1 L26.3,14.8 L21,0.3 Z" id="Shape" sketch:type="MSShapeGroup"></path>
                <path d="M20.1,22.3 L21,1.5" id="Shape" sketch:type="MSShapeGroup"></path>
                <path d="M20.1,21.6 L40.9,14.9 L20.1,21.6 L20.1,21.6 Z" id="Shape" sketch:type="MSShapeGroup"></path>
                <path d="M20.1,21.6 L34.5,40.7 L20.1,21.6 L20.1,21.6 Z" id="Shape" sketch:type="MSShapeGroup"></path>
                <path d="M20.1,21.6 L5.2,39.5 L20.1,21.6 L20.1,21.6 Z" id="Shape" sketch:type="MSShapeGroup"></path>
                <path d="M0.3,13.3 L20.1,21.6 L15.3,13.8" id="Shape" sketch:type="MSShapeGroup"></path>
                <path d="M29.8,26.6 L20.1,21.6 L26.3,14.8" id="Shape" sketch:type="MSShapeGroup"></path>
                <path d="M19.8,31.6 L20.1,21.6 L10.6,24.6" id="Shape" sketch:type="MSShapeGroup"></path>
            </g>
        </g>
    </g>
</svg>